<svg width="364" height="94" viewBox="0 0 364 94" fill="none" xmlns="http://www.w3.org/2000/svg">
<path d="M20.2312 12.272C10.2608 12.272 4.4528 18.2736 4.4528 28.5344V65.7056C4.4528 75.9664 10.2608 81.968 20.2312 81.968C30.2984 81.968 36.2032 75.9664 36.2032 65.7056V57.5744L26.3296 57.0904V64.6408C26.3296 70.0616 24.2968 72.4816 20.5216 72.4816C16.7464 72.4816 14.7136 70.0616 14.7136 65.6088V28.6312C14.7136 24.1784 16.7464 21.7584 20.5216 21.7584C24.2968 21.7584 26.3296 24.1784 26.3296 29.5992V35.1168L36.2032 34.6328V28.5344C36.2032 18.2736 30.2984 12.272 20.2312 12.272ZM60.6142 12.272C50.3534 12.272 44.0614 18.7576 44.0614 29.4056V64.8344C44.0614 75.4824 50.3534 81.968 60.6142 81.968C70.875 81.968 77.167 75.4824 77.167 64.8344V29.4056C77.167 18.7576 70.875 12.272 60.6142 12.272ZM60.6142 21.7584C64.6798 21.7584 66.9062 24.4688 66.9062 29.5024V64.7376C66.9062 69.7712 64.6798 72.4816 60.6142 72.4816C56.5486 72.4816 54.3222 69.7712 54.3222 64.7376V29.5024C54.3222 24.4688 56.5486 21.7584 60.6142 21.7584ZM120.494 13.24H110.814V53.6056H110.62L98.5205 13.24H87.0981V81H96.7781V36.0848H96.9717L110.427 81H120.494V13.24ZM159.213 13.24H127.075V22.92H138.013V81H148.274V22.92H159.213V13.24ZM183.447 13.24H170.379L158.667 81H168.927L171.154 65.6088H182.479L184.706 81H195.16L183.447 13.24ZM176.962 27.76L181.124 56.316H172.509L176.671 27.76H176.962ZM216.762 12.272C206.791 12.272 200.983 18.2736 200.983 28.5344V65.7056C200.983 75.9664 206.791 81.968 216.762 81.968C226.829 81.968 232.734 75.9664 232.734 65.7056V57.5744L222.86 57.0904V64.6408C222.86 70.0616 220.827 72.4816 217.052 72.4816C213.277 72.4816 211.244 70.0616 211.244 65.6088V28.6312C211.244 24.1784 213.277 21.7584 217.052 21.7584C220.827 21.7584 222.86 24.1784 222.86 29.5992V35.1168L232.734 34.6328V28.5344C232.734 18.2736 226.829 12.272 216.762 12.272ZM269.152 13.24H237.015V22.92H247.953V81H258.214V22.92H269.152V13.24ZM323.873 13.24H313.612V65.512C313.612 70.4488 311.386 72.288 307.804 72.288C304.223 72.288 301.996 70.4488 301.996 65.512V13.24H292.123V65.8024C292.123 76.4504 298.221 81.968 307.901 81.968C317.775 81.968 323.873 76.4504 323.873 65.8024V13.24ZM346.3 12.272C336.524 12.272 331.006 17.7896 331.006 27.4696V28.9216C331.006 36.8592 334.2 42.4736 343.59 50.4112C350.463 56.2192 352.496 59.6072 352.496 63.8664V66.0928C352.496 70.352 350.56 72.4816 346.688 72.4816C342.816 72.4816 340.88 70.352 340.88 66.0928V61.2528L331.006 62.2208V66.7704C331.006 76.4504 336.717 81.968 346.881 81.968C357.045 81.968 362.756 76.4504 362.756 66.7704V63.3824C362.756 55.2512 359.272 49.6368 349.882 41.6992C343.009 35.8912 341.267 32.5032 341.267 28.5344V27.6632C341.267 23.7912 343.106 21.7584 346.494 21.7584C349.882 21.7584 351.721 23.7912 351.721 27.6632V30.18L361.595 29.212V27.4696C361.595 17.7896 356.077 12.272 346.3 12.272Z" fill="#9F9F9F" fill-opacity="0.27"/>
<path d="M36.2032 57.5744H37.3317V56.4999L36.2585 56.4473L36.2032 57.5744ZM26.3296 57.0904L26.3849 55.9633L25.2011 55.9052V57.0904H26.3296ZM26.3296 35.1168H25.2011V36.302L26.3849 36.2439L26.3296 35.1168ZM36.2032 34.6328L36.2585 35.7599L37.3317 35.7073V34.6328H36.2032ZM20.2312 11.1435C15.0177 11.1435 10.752 12.7179 7.79291 15.7699C4.83843 18.8171 3.32431 23.1951 3.32431 28.5344H5.58129C5.58129 23.6129 6.97117 19.8597 9.41329 17.3409C11.8508 14.8269 15.4743 13.4005 20.2312 13.4005V11.1435ZM3.32431 28.5344V65.7056H5.58129V28.5344H3.32431ZM3.32431 65.7056C3.32431 71.0449 4.83843 75.4229 7.79291 78.4701C10.752 81.5221 15.0177 83.0965 20.2312 83.0965V80.8395C15.4743 80.8395 11.8508 79.4131 9.41329 76.8991C6.97117 74.3803 5.58129 70.6271 5.58129 65.7056H3.32431ZM20.2312 83.0965C25.4898 83.0965 29.8016 81.5242 32.7973 78.4755C35.7904 75.4294 37.3317 71.0499 37.3317 65.7056H35.0747C35.0747 70.6221 33.6636 74.3738 31.1875 76.8937C28.714 79.411 25.0398 80.8395 20.2312 80.8395V83.0965ZM37.3317 65.7056V57.5744H35.0747V65.7056H37.3317ZM36.2585 56.4473L26.3849 55.9633L26.2744 58.2175L36.148 58.7015L36.2585 56.4473ZM25.2011 57.0904V64.6408H27.4581V57.0904H25.2011ZM25.2011 64.6408C25.2011 67.2438 24.7071 68.9111 23.9446 69.9088C23.2277 70.847 22.1484 71.3531 20.5216 71.3531V73.6101C22.67 73.6101 24.4947 72.9062 25.738 71.2792C26.9357 69.7117 27.4581 67.4586 27.4581 64.6408H25.2011ZM20.5216 71.3531C18.8881 71.3531 17.7842 70.8403 17.0644 69.9873C16.3179 69.1025 15.8421 67.6837 15.8421 65.6088H13.5851C13.5851 67.9867 14.1257 70.0043 15.3394 71.4427C16.5798 72.9129 18.3799 73.6101 20.5216 73.6101V71.3531ZM15.8421 65.6088V28.6312H13.5851V65.6088H15.8421ZM15.8421 28.6312C15.8421 26.5563 16.3179 25.1375 17.0644 24.2527C17.7842 23.3996 18.8881 22.8869 20.5216 22.8869V20.6299C18.3799 20.6299 16.5798 21.3271 15.3394 22.7973C14.1257 24.2357 13.5851 26.2533 13.5851 28.6312H15.8421ZM20.5216 22.8869C22.1484 22.8869 23.2277 23.393 23.9446 24.3312C24.7071 25.3289 25.2011 26.9962 25.2011 29.5992H27.4581C27.4581 26.7814 26.9357 24.5283 25.738 22.9608C24.4947 21.3338 22.67 20.6299 20.5216 20.6299V22.8869ZM25.2011 29.5992V35.1168H27.4581V29.5992H25.2011ZM26.3849 36.2439L36.2585 35.7599L36.148 33.5057L26.2744 33.9897L26.3849 36.2439ZM37.3317 34.6328V28.5344H35.0747V34.6328H37.3317ZM37.3317 28.5344C37.3317 23.1901 35.7904 18.8105 32.7973 15.7645C29.8016 12.7158 25.4898 11.1435 20.2312 11.1435V13.4005C25.0398 13.4005 28.714 14.829 31.1875 17.3463C33.6636 19.8662 35.0747 23.6179 35.0747 28.5344H37.3317ZM60.6142 11.1435C55.2412 11.1435 50.7873 12.8474 47.6789 16.0612C44.5747 19.2706 42.9329 23.8606 42.9329 29.4056H45.1899C45.1899 24.3026 46.6941 20.3258 49.3011 17.6303C51.9039 14.9394 55.7264 13.4005 60.6142 13.4005V11.1435ZM42.9329 29.4056V64.8344H45.1899V29.4056H42.9329ZM42.9329 64.8344C42.9329 70.3794 44.5747 74.9694 47.6789 78.1788C50.7873 81.3926 55.2412 83.0965 60.6142 83.0965V80.8395C55.7264 80.8395 51.9039 79.3006 49.3011 76.6096C46.6941 73.9142 45.1899 69.9374 45.1899 64.8344H42.9329ZM60.6142 83.0965C65.9872 83.0965 70.4411 81.3926 73.5495 78.1788C76.6537 74.9694 78.2955 70.3794 78.2955 64.8344H76.0385C76.0385 69.9374 74.5343 73.9142 71.9273 76.6096C69.3245 79.3006 65.502 80.8395 60.6142 80.8395V83.0965ZM78.2955 64.8344V29.4056H76.0385V64.8344H78.2955ZM78.2955 29.4056C78.2955 23.8606 76.6537 19.2706 73.5495 16.0612C70.4411 12.8474 65.9872 11.1435 60.6142 11.1435V13.4005C65.502 13.4005 69.3245 14.9394 71.9273 17.6303C74.5343 20.3258 76.0385 24.3026 76.0385 29.4056H78.2955ZM60.6142 22.8869C62.3781 22.8869 63.6003 23.4619 64.41 24.4556C65.2503 25.487 65.7777 27.1301 65.7777 29.5024H68.0347C68.0347 26.8411 67.4489 24.6122 66.1596 23.03C64.8397 21.4101 62.9159 20.6299 60.6142 20.6299V22.8869ZM65.7777 29.5024V64.7376H68.0347V29.5024H65.7777ZM65.7777 64.7376C65.7777 67.1099 65.2503 68.753 64.41 69.7844C63.6003 70.7781 62.3781 71.3531 60.6142 71.3531V73.6101C62.9159 73.6101 64.8397 72.8299 66.1596 71.21C67.4489 69.6278 68.0347 67.3989 68.0347 64.7376H65.7777ZM60.6142 71.3531C58.8503 71.3531 57.6281 70.7781 56.8184 69.7844C55.9781 68.753 55.4507 67.1099 55.4507 64.7376H53.1937C53.1937 67.3989 53.7795 69.6278 55.0688 71.21C56.3887 72.8299 58.3125 73.6101 60.6142 73.6101V71.3531ZM55.4507 64.7376V29.5024H53.1937V64.7376H55.4507ZM55.4507 29.5024C55.4507 27.1301 55.9781 25.487 56.8184 24.4556C57.6281 23.4619 58.8503 22.8869 60.6142 22.8869V20.6299C58.3125 20.6299 56.3887 21.4101 55.0688 23.03C53.7795 24.6122 53.1937 26.8411 53.1937 29.5024H55.4507ZM120.494 13.24H121.623V12.1115H120.494V13.24ZM110.814 13.24V12.1115H109.686V13.24H110.814ZM110.814 53.6056V54.7341H111.943V53.6056H110.814ZM110.62 53.6056L109.54 53.9296L109.781 54.7341H110.62V53.6056ZM98.5205 13.24L99.6014 12.916L99.3603 12.1115H98.5205V13.24ZM87.0981 13.24V12.1115H85.9696V13.24H87.0981ZM87.0981 81H85.9696V82.1285H87.0981V81ZM96.7781 81V82.1285H97.9066V81H96.7781ZM96.7781 36.0848V34.9563H95.6496V36.0848H96.7781ZM96.9717 36.0848L98.0527 35.761L97.8117 34.9563H96.9717V36.0848ZM110.427 81L109.346 81.3238L109.587 82.1285H110.427V81ZM120.494 81V82.1285H121.623V81H120.494ZM120.494 12.1115H110.814V14.3685H120.494V12.1115ZM109.686 13.24V53.6056H111.943V13.24H109.686ZM110.814 52.4771H110.62V54.7341H110.814V52.4771ZM111.701 53.2816L99.6014 12.916L97.4395 13.564L109.54 53.9296L111.701 53.2816ZM98.5205 12.1115H87.0981V14.3685H98.5205V12.1115ZM85.9696 13.24V81H88.2266V13.24H85.9696ZM87.0981 82.1285H96.7781V79.8715H87.0981V82.1285ZM97.9066 81V36.0848H95.6496V81H97.9066ZM96.7781 37.2133H96.9717V34.9563H96.7781V37.2133ZM95.8907 36.4086L109.346 81.3238L111.508 80.6762L98.0527 35.761L95.8907 36.4086ZM110.427 82.1285H120.494V79.8715H110.427V82.1285ZM121.623 81V13.24H119.366V81H121.623ZM159.213 13.24H160.341V12.1115H159.213V13.24ZM127.075 13.24V12.1115H125.946V13.24H127.075ZM127.075 22.92H125.946V24.0485H127.075V22.92ZM138.013 22.92H139.142V21.7915H138.013V22.92ZM138.013 81H136.885V82.1285H138.013V81ZM148.274 81V82.1285H149.403V81H148.274ZM148.274 22.92V21.7915H147.146V22.92H148.274ZM159.213 22.92V24.0485H160.341V22.92H159.213ZM159.213 12.1115H127.075V14.3685H159.213V12.1115ZM125.946 13.24V22.92H128.203V13.24H125.946ZM127.075 24.0485H138.013V21.7915H127.075V24.0485ZM136.885 22.92V81H139.142V22.92H136.885ZM138.013 82.1285H148.274V79.8715H138.013V82.1285ZM149.403 81V22.92H147.146V81H149.403ZM148.274 24.0485H159.213V21.7915H148.274V24.0485ZM160.341 22.92V13.24H158.084V22.92H160.341ZM183.447 13.24L184.559 13.0478L184.398 12.1115H183.447V13.24ZM170.379 13.24V12.1115H169.429L169.267 13.0478L170.379 13.24ZM158.667 81L157.555 80.8078L157.326 82.1285H158.667V81ZM168.927 81V82.1285H169.904L170.044 81.1616L168.927 81ZM171.154 65.6088V64.4803H170.177L170.037 65.4472L171.154 65.6088ZM182.479 65.6088L183.596 65.4472L183.456 64.4803H182.479V65.6088ZM184.706 81L183.589 81.1616L183.729 82.1285H184.706V81ZM195.16 81V82.1285H196.5L196.272 80.8078L195.16 81ZM176.962 27.76L178.078 27.5972L177.938 26.6315H176.962V27.76ZM181.124 56.316V57.4445H182.429L182.241 56.1532L181.124 56.316ZM172.509 56.316L171.392 56.1532L171.204 57.4445H172.509V56.316ZM176.671 27.76V26.6315H175.695L175.555 27.5972L176.671 27.76ZM183.447 12.1115H170.379V14.3685H183.447V12.1115ZM169.267 13.0478L157.555 80.8078L159.779 81.1922L171.491 13.4322L169.267 13.0478ZM158.667 82.1285H168.927V79.8715H158.667V82.1285ZM170.044 81.1616L172.271 65.7704L170.037 65.4472L167.81 80.8384L170.044 81.1616ZM171.154 66.7373H182.479V64.4803H171.154V66.7373ZM181.362 65.7704L183.589 81.1616L185.823 80.8384L183.596 65.4472L181.362 65.7704ZM184.706 82.1285H195.16V79.8715H184.706V82.1285ZM196.272 80.8078L184.559 13.0478L182.335 13.4322L194.048 81.1922L196.272 80.8078ZM175.845 27.9228L180.007 56.4788L182.241 56.1532L178.078 27.5972L175.845 27.9228ZM181.124 55.1875H172.509V57.4445H181.124V55.1875ZM173.626 56.4788L177.788 27.9228L175.555 27.5972L171.392 56.1532L173.626 56.4788ZM176.671 28.8885H176.962V26.6315H176.671V28.8885ZM232.734 57.5744H233.862V56.4999L232.789 56.4473L232.734 57.5744ZM222.86 57.0904L222.915 55.9633L221.732 55.9052V57.0904H222.86ZM222.86 35.1168H221.732V36.302L222.915 36.2439L222.86 35.1168ZM232.734 34.6328L232.789 35.7599L233.862 35.7073V34.6328H232.734ZM216.762 11.1435C211.548 11.1435 207.282 12.7179 204.323 15.7699C201.369 18.8171 199.855 23.1951 199.855 28.5344H202.112C202.112 23.6129 203.502 19.8597 205.944 17.3409C208.381 14.8269 212.005 13.4005 216.762 13.4005V11.1435ZM199.855 28.5344V65.7056H202.112V28.5344H199.855ZM199.855 65.7056C199.855 71.0449 201.369 75.4229 204.323 78.4701C207.282 81.5221 211.548 83.0965 216.762 83.0965V80.8395C212.005 80.8395 208.381 79.4131 205.944 76.8991C203.502 74.3803 202.112 70.6271 202.112 65.7056H199.855ZM216.762 83.0965C222.02 83.0965 226.332 81.5242 229.328 78.4755C232.321 75.4294 233.862 71.0499 233.862 65.7056H231.605C231.605 70.6221 230.194 74.3738 227.718 76.8937C225.244 79.411 221.57 80.8395 216.762 80.8395V83.0965ZM233.862 65.7056V57.5744H231.605V65.7056H233.862ZM232.789 56.4473L222.915 55.9633L222.805 58.2175L232.678 58.7015L232.789 56.4473ZM221.732 57.0904V64.6408H223.989V57.0904H221.732ZM221.732 64.6408C221.732 67.2438 221.238 68.9111 220.475 69.9088C219.758 70.847 218.679 71.3531 217.052 71.3531V73.6101C219.2 73.6101 221.025 72.9062 222.268 71.2792C223.466 69.7117 223.989 67.4586 223.989 64.6408H221.732ZM217.052 71.3531C215.419 71.3531 214.315 70.8403 213.595 69.9873C212.848 69.1025 212.373 67.6837 212.373 65.6088H210.116C210.116 67.9867 210.656 70.0043 211.87 71.4427C213.11 72.9129 214.91 73.6101 217.052 73.6101V71.3531ZM212.373 65.6088V28.6312H210.116V65.6088H212.373ZM212.373 28.6312C212.373 26.5563 212.848 25.1375 213.595 24.2527C214.315 23.3996 215.419 22.8869 217.052 22.8869V20.6299C214.91 20.6299 213.11 21.3271 211.87 22.7973C210.656 24.2357 210.116 26.2533 210.116 28.6312H212.373ZM217.052 22.8869C218.679 22.8869 219.758 23.393 220.475 24.3312C221.238 25.3289 221.732 26.9962 221.732 29.5992H223.989C223.989 26.7814 223.466 24.5283 222.268 22.9608C221.025 21.3338 219.2 20.6299 217.052 20.6299V22.8869ZM221.732 29.5992V35.1168H223.989V29.5992H221.732ZM222.915 36.2439L232.789 35.7599L232.678 33.5057L222.805 33.9897L222.915 36.2439ZM233.862 34.6328V28.5344H231.605V34.6328H233.862ZM233.862 28.5344C233.862 23.1901 232.321 18.8105 229.328 15.7645C226.332 12.7158 222.02 11.1435 216.762 11.1435V13.4005C221.57 13.4005 225.244 14.829 227.718 17.3463C230.194 19.8662 231.605 23.6179 231.605 28.5344H233.862ZM269.152 13.24H270.281V12.1115H269.152V13.24ZM237.015 13.24V12.1115H235.886V13.24H237.015ZM237.015 22.92H235.886V24.0485H237.015V22.92ZM247.953 22.92H249.082V21.7915H247.953V22.92ZM247.953 81H246.825V82.1285H247.953V81ZM258.214 81V82.1285H259.342V81H258.214ZM258.214 22.92V21.7915H257.086V22.92H258.214ZM269.152 22.92V24.0485H270.281V22.92H269.152ZM269.152 12.1115H237.015V14.3685H269.152V12.1115ZM235.886 13.24V22.92H238.143V13.24H235.886ZM237.015 24.0485H247.953V21.7915H237.015V24.0485ZM246.825 22.92V81H249.082V22.92H246.825ZM247.953 82.1285H258.214V79.8715H247.953V82.1285ZM259.342 81V22.92H257.086V81H259.342ZM258.214 24.0485H269.152V21.7915H258.214V24.0485ZM270.281 22.92V13.24H268.024V22.92H270.281ZM323.873 13.24H325.002V12.1115H323.873V13.24ZM313.612 13.24V12.1115H312.484V13.24H313.612ZM301.996 13.24H303.125V12.1115H301.996V13.24ZM292.123 13.24V12.1115H290.994V13.24H292.123ZM323.873 12.1115H313.612V14.3685H323.873V12.1115ZM312.484 13.24V65.512H314.741V13.24H312.484ZM312.484 65.512C312.484 67.8349 311.957 69.1975 311.226 69.9816C310.51 70.7493 309.412 71.1595 307.804 71.1595V73.4165C309.778 73.4165 311.584 72.9071 312.877 71.521C314.154 70.1513 314.741 68.1259 314.741 65.512H312.484ZM307.804 71.1595C306.196 71.1595 305.098 70.7493 304.383 69.9816C303.651 69.1975 303.125 67.8349 303.125 65.512H300.868C300.868 68.1259 301.455 70.1513 302.732 71.521C304.025 72.9071 305.831 73.4165 307.804 73.4165V71.1595ZM303.125 65.512V13.24H300.868V65.512H303.125ZM301.996 12.1115H292.123V14.3685H301.996V12.1115ZM290.994 13.24V65.8024H293.251V13.24H290.994ZM290.994 65.8024C290.994 71.3404 292.584 75.7031 295.588 78.6797C298.588 81.6539 302.851 83.0965 307.901 83.0965V80.8395C303.271 80.8395 299.645 79.5233 297.176 77.0767C294.71 74.6325 293.251 70.9124 293.251 65.8024H290.994ZM307.901 83.0965C313.043 83.0965 317.354 81.6571 320.381 78.6832C323.411 75.7056 325.002 71.3405 325.002 65.8024H322.745C322.745 70.9123 321.286 74.63 318.799 77.0732C316.308 79.5201 312.633 80.8395 307.901 80.8395V83.0965ZM325.002 65.8024V13.24H322.745V65.8024H325.002ZM343.59 50.4112L342.862 51.273L342.862 51.2731L343.59 50.4112ZM340.88 61.2528H342.008V60.0083L340.77 60.1297L340.88 61.2528ZM331.006 62.2208L330.896 61.0977L329.878 61.1975V62.2208H331.006ZM349.882 41.6992L350.611 40.8374L350.61 40.8373L349.882 41.6992ZM351.721 30.18H350.593V31.4245L351.831 31.3031L351.721 30.18ZM361.595 29.212L361.705 30.3351L362.723 30.2353V29.212H361.595ZM346.3 11.1435C341.203 11.1435 337.06 12.5852 334.191 15.441C331.321 18.2974 329.878 22.418 329.878 27.4696H332.135C332.135 22.8412 333.45 19.363 335.783 17.0406C338.117 14.7175 341.621 13.4005 346.3 13.4005V11.1435ZM329.878 27.4696V28.9216H332.135V27.4696H329.878ZM329.878 28.9216C329.878 33.0639 330.717 36.6526 332.802 40.2341C334.868 43.7842 338.126 47.2699 342.862 51.273L344.319 49.5494C339.664 45.6149 336.63 42.3246 334.752 39.0987C332.893 35.9042 332.135 32.7169 332.135 28.9216H329.878ZM342.862 51.2731C349.687 57.0406 351.367 60.1375 351.367 63.8664H353.624C353.624 59.0769 351.239 55.3978 344.318 49.5493L342.862 51.2731ZM351.367 63.8664V66.0928H353.624V63.8664H351.367ZM351.367 66.0928C351.367 68.0736 350.915 69.3487 350.209 70.1253C349.521 70.8815 348.421 71.3531 346.688 71.3531V73.6101C348.827 73.6101 350.63 73.0169 351.879 71.6435C353.109 70.2905 353.624 68.3712 353.624 66.0928H351.367ZM346.688 71.3531C344.955 71.3531 343.854 70.8815 343.167 70.1253C342.461 69.3487 342.008 68.0736 342.008 66.0928H339.751C339.751 68.3712 340.267 70.2905 341.497 71.6435C342.745 73.0169 344.549 73.6101 346.688 73.6101V71.3531ZM342.008 66.0928V61.2528H339.751V66.0928H342.008ZM340.77 60.1297L330.896 61.0977L331.116 63.3439L340.99 62.3759L340.77 60.1297ZM329.878 62.2208V66.7704H332.135V62.2208H329.878ZM329.878 66.7704C329.878 71.833 331.376 75.9589 334.351 78.8134C337.319 81.6614 341.602 83.0965 346.881 83.0965V80.8395C341.996 80.8395 338.342 79.5158 335.914 77.185C333.491 74.8607 332.135 71.3878 332.135 66.7704H329.878ZM346.881 83.0965C352.16 83.0965 356.444 81.6614 359.412 78.8134C362.386 75.9589 363.885 71.833 363.885 66.7704H361.628C361.628 71.3878 360.271 74.8607 357.849 77.185C355.42 79.5158 351.766 80.8395 346.881 80.8395V83.0965ZM363.885 66.7704V63.3824H361.628V66.7704H363.885ZM363.885 63.3824C363.885 59.1315 362.968 55.4912 360.808 51.8881C358.669 48.3185 355.341 44.8359 350.611 40.8374L349.154 42.561C353.813 46.5001 356.922 49.7935 358.872 53.0483C360.803 56.2696 361.628 59.5021 361.628 63.3824H363.885ZM350.61 40.8373C347.207 37.9611 345.157 35.751 343.954 33.8285C342.777 31.9473 342.395 30.3173 342.395 28.5344H340.138C340.138 30.7203 340.628 32.7687 342.041 35.0257C343.427 37.2414 345.684 39.6293 349.154 42.5611L350.61 40.8373ZM342.395 28.5344V27.6632H340.138V28.5344H342.395ZM342.395 27.6632C342.395 25.8881 342.818 24.7221 343.453 24.0092C344.068 23.3183 345.031 22.8869 346.494 22.8869V20.6299C344.57 20.6299 342.919 21.2148 341.767 22.5084C340.635 23.7799 340.138 25.5663 340.138 27.6632H342.395ZM346.494 22.8869C347.958 22.8869 348.92 23.3183 349.535 24.0092C350.17 24.7221 350.593 25.8881 350.593 27.6632H352.85C352.85 25.5663 352.353 23.7799 351.221 22.5084C350.069 21.2148 348.419 20.6299 346.494 20.6299V22.8869ZM350.593 27.6632V30.18H352.85V27.6632H350.593ZM351.831 31.3031L361.705 30.3351L361.485 28.0889L351.611 29.0569L351.831 31.3031ZM362.723 29.212V27.4696H360.466V29.212H362.723ZM362.723 27.4696C362.723 22.418 361.28 18.2974 358.41 15.441C355.541 12.5852 351.398 11.1435 346.3 11.1435V13.4005C350.98 13.4005 354.484 14.7175 356.818 17.0406C359.151 19.363 360.466 22.8412 360.466 27.4696H362.723Z" fill="white"/>
</svg>
